<svg width="27" height="27" viewBox="0 0 27 27" fill="none" xmlns="http://www.w3.org/2000/svg">
<path d="M24.3891 11.2641H14.9859V1.86094C14.9859 1.61656 14.9378 1.37457 14.8443 1.14879C14.7508 0.923009 14.6137 0.71786 14.4409 0.545056C14.2681 0.372252 14.0629 0.235177 13.8371 0.141656C13.6114 0.0481348 13.3694 0 13.125 0C12.6314 0 12.1581 0.196062 11.8091 0.545056C11.4601 0.894049 11.2641 1.36739 11.2641 1.86094V11.2641H1.86094C1.61656 11.2641 1.37457 11.3122 1.14879 11.4057C0.923009 11.4992 0.71786 11.6363 0.545056 11.8091C0.372252 11.9819 0.235177 12.1871 0.141656 12.4128C0.0481348 12.6386 0 12.8806 0 13.125C0 13.6186 0.196062 14.0919 0.545056 14.4409C0.894049 14.7899 1.36739 14.9859 1.86094 14.9859H11.2641V24.3891C11.2641 24.8826 11.4601 25.3559 11.8091 25.7049C12.1581 26.0539 12.6314 26.25 13.125 26.25C13.6186 26.25 14.0919 26.0539 14.4409 25.7049C14.7899 25.3559 14.9859 24.8826 14.9859 24.3891V14.9859H24.3891C24.8826 14.9859 25.3559 14.7899 25.7049 14.4409C26.0539 14.0919 26.25 13.6186 26.25 13.125C26.25 12.6314 26.0539 12.1581 25.7049 11.8091C25.3559 11.4601 24.8826 11.2641 24.3891 11.2641Z" fill="white"/>
</svg>
