<?xml version="1.0" encoding="UTF-8"?>
<svg id="Layer_1" xmlns="http://www.w3.org/2000/svg" version="1.1" viewBox="0 0 6786.28 5229.65">
  <!-- Generator: Adobe Illustrator 30.0.0, SVG Export Plug-In . SVG Version: 2.1.1 Build 123)  -->
  <defs>
    <style>
      .st0 {
        fill: #be2130;
      }

      .st1 {
        fill: #4363ad;
      }
    </style>
  </defs>
  <polygon class="st1" points="4513.48 1810.92 4731.36 2417.38 5424.41 2410.08 4877.68 2798.5 5105.57 3418.73 4532.42 3047.14 4030.22 3401.01 4529.92 2918.77 4925.93 3173.5 4769.32 2745.42 5156.18 2473.23 4672.87 2479.62 4516.01 2066.26 4371.56 2480.58 4345.27 2480.82 3761.97 2426.53 3760.75 2422.69 4308.2 2422.35 4513.48 1810.92"/>
  <g>
    <path class="st0" d="M4080.82,2911.87c-3.22,11.16-44.41,9.87-54.5,8.95-8.04-.74-19.48-1.79-21.35-11.53l-.06-338.69c.03-9.22,7.4-21.25,15.83-24.63,8.05-3.24,75.38-3.49,86.49-1.76,29.95,4.68,39.24,38.74,48.86,62.41,26.53,65.28,47.89,132.92,75.28,197.84l83.54-217.4c8.76-19.46,16.33-40.4,40.45-43.01,16.54-1.79,57.11-2.01,73.43-.06,20.82,2.48,24.55,18.48,26.6,36.63-5.65,104.09,7.2,215.5.02,318.72-1.06,15.29-2.54,19.12-19.31,21.18-11.6,1.42-54.58,3.03-58.13-9.68l1.39-296-111.54,299.33c-6.67,8.94-45.33,7.72-56.79,6.65-9.61-.89-18.72-2.48-23.34-12.07l-106.87-296.44v299.57Z"/>
    <path class="st0" d="M2023.69,2550.36c11.31-9.65,29.8-9.86,44.25-8.81,10.12.74,26.85,2.09,29.07,13.93l.16,328.66c-2.05,23.98-9.66,34.07-34.28,36.54-24.96,2.5-55.08,1.85-72.09-18.93l-101.64-179.06-42.58-82.6v269.23c0,15.17-57.76,13.42-68.2,7.46-3.08-1.76-4.77-3.93-5.12-7.53l-.12-341.27c.75-6.58,4.65-16.33,10.31-20.03,8.56-5.59,61.89-5.3,74.51-3.93,32.02,3.46,42.63,35.33,57.36,58.98l108.37,201.41v-254.06Z"/>
    <path class="st0" d="M2428.54,2550.36c3.32-10.98,55.53-9.3,65.74-5.01,3.24,1.36,6.96,6.43,7.58,10.13l.07,333.64c-2.34,35.57-42.05,34.54-69.31,31.31-35.36-4.19-46.73-36.47-62.71-63.75-29.72-50.74-55.76-103.76-86.03-154.21l-32.46-64.9v274.29c0,3.15-11.01,7.61-14.52,8.25-11.25,2.03-56.23,3.64-58.87-10.77l-.06-338.82c3.47-15.01,7.49-24.73,24.04-26.55,14.3-1.57,51.65-1.69,65.62.29,10.47,1.48,21.4,9.5,28.12,17.41,23.15,27.28,60.84,104.67,80.08,139.93,17.69,32.42,34.08,65.59,50.54,98.65,10.22,10.65,2.16-.55,2.16-2.16v-247.74Z"/>
    <path class="st0" d="M3323.76,2537.22c100.09-8.91,180.91,28.15,199.65,132.71,21.53,120.05-19.37,246.42-157.29,255.95-100.36,6.94-180.16-31-198.05-136.04-20.34-119.42,20.26-240.57,155.69-252.62ZM3328.77,2602.89c-103.61,12.5-105.5,212.05-29.56,248.05,72.09,34.18,136.18-13.8,143.67-88.54,8.3-82.84-11.59-171.89-114.11-159.52Z"/>
    <path class="st0" d="M3639.5,2575.85c93.22-78.44,265.4-47.43,295.39,84.92,38.18,168.47-63.11,306.39-243.17,258.12-139.5-37.4-149.85-260.9-52.22-343.04ZM3743.68,2602.83c-85.47,10.81-96.92,131.26-73.97,196.48,28.18,80.09,143.04,83.3,175.2,5.77,33.7-81.24,13.43-216.76-101.23-202.26Z"/>
    <path class="st0" d="M2583.47,2547.15c8.21-7.97,71.16-9.02,76.63,1.91l1.13,226.39c-2.47,106.78,152.32,116.64,159.6,10.11l1.14-236.5c5.7-11.37,58.37-8.63,69.6-3.74,5.93,2.58,10.41,5.25,10.26,12.5-13.43,132.63,57.47,354.36-140.45,368.05-95.91,6.63-172.86-32.73-180.98-135.39-4.79-60.57-5.29-169.86-.14-230.12.33-3.83.48-10.56,3.21-13.22Z"/>
    <path class="st0" d="M1721.95,2917.58c-6.55,5.66-72.31,4.97-79.74-2.51-6.58-6.61-19.42-62.68-26.46-75.95-1.14-2.15-2.11-4.5-4.46-5.66l-142.59-1.34c-5.03,1.2-23.32,77.92-32.15,84.68-8.67,6.64-67.99,6.86-74.68-3.68l133.1-367.71c8.29-5.66,66.57-5.17,79.56-3.87,8.29.83,18.09,2.48,22.62,10.27l127.85,357.27c-.65,2.64-1.01,6.72-3.05,8.48ZM1487.27,2771.56h103.74l-51.85-151.7-51.9,151.7Z"/>
    <path class="st0" d="M3037.74,2542.17c10.74-1.55,57.2-2.43,60.92,8.6l.11,287.47c-6.26,51.31-34.36,83.49-87.3,87.18-16.67,1.16-65.04-3.47-72.43-20.52-4.79-11.06-7.08-62.33,6.85-62.58,4.37-.08,20.98,10.02,29.08,11.49,30.38,5.53,40.83-9.86,43.23-37.94l-.09-263c1.1-7.56,13.02-9.77,19.64-10.72Z"/>
    <path class="st0" d="M2913.09,3072.39c32.71,4.83,48.46,50.11,16.46,66.98,39.41,21,31.97,73.44-12.53,81.04-21.79,3.72-51.72,1.46-73.52-1.4v-142.83l3.8-3.79c20.38,2.13,46.18-2.9,65.79,0ZM2873.87,3133.07c54.49,8.83,55.07-47.02,0-37.92v37.92ZM2873.87,3155.82v40.45c15.83,4.58,48.58,3.55,48.38-18.97-.23-25.31-30.3-21.6-48.38-21.48Z"/>
    <path class="st0" d="M2426.01,3221.55c-12.74,1.94-30.25,8.23-32.66-8.99-3.47-24.84-3.19-100.88-.28-126.3.98-8.59,2.16-12.93,11.29-14,15.79-1.85,60.23-1.31,73.99,4.73,31.9,14.01,30.04,65.59-4.25,75.03,11.93,6,37.5,61.42,32.57,69.22-53.54,21.59-30.78-66.73-80.66-60.36v60.67ZM2426.01,3138.12c54.95,7.82,56.24-51.87,0-42.98v42.98Z"/>
    <path class="st0" d="M3444.45,3072.39c40.89,6.32,48.27,64.98,8.87,79.62,9.96,5.76,37.14,64.33,32.77,69.42-9.03,1.59-22.77,5.55-31.09.31-11.35-7.15-15.25-70.81-49.77-60.86v56.88c-9.29,8.33-23.6,8.33-32.89,0v-141.57l3.8-3.79c21.01,2.3,48.18-3.11,68.32,0ZM3405.24,3138.12c54.95,7.82,56.24-51.87,0-42.98v42.98Z"/>
    <path class="st0" d="M2129.96,3072.39v58.14h51.87l3.8-3.79v-54.35c11.01-1.86,21.6-6.01,30.36,3.79v145.36c-10.71,4.22-19.6,2.13-30.36,0v-63.2h-55.67v59.41c-18.22,11.98-31.23,10.34-32.99-12.55-3.3-42.93,2.22-87.48,1.18-130.38,10.36-7.72,20.44-3.52,31.81-2.42Z"/>
    <path class="st0" d="M2324.2,3072.98l50.14,148.73c-3.13,4.25-25.46,3.08-30.16.05l-11.5-31.58-58.13-1.15c-2.46,1.58-7.43,28.76-11.09,31.91-5.23,4.5-27.17,4.68-29.48-3.59l49.14-142.37c12.29-8.43,27.81-5.13,41.09-2ZM2324.8,3163.4l-21.51-60.7c-7.03,19.78-15.94,39.94-18.98,60.7h40.48Z"/>
    <path class="st0" d="M2825.74,3221.46c-43.87,14.72-32.21-15.9-44.19-30.29-4.66-5.6-45.55-1.28-55.36-2.14-11.97,19.81-8.68,44.84-41.78,32.21l48.36-148.24c9.71-4.44,36-5.05,42.21,3.39l50.75,145.07ZM2772.66,3163.4l-21.51-60.7-18.98,60.7h40.48Z"/>
    <path class="st0" d="M3600.07,3072.39c10.31-1.51,22.62-6.62,29.95,4.21-3.36,33.54,10.78,105.41-12.2,131.08-23.57,26.33-88.42,22.88-105.21-11.25-8.23-16.74-8.75-94.61-6.31-115.33,2.03-17.2,30.28-11.73,32.69-4.57,3.36,30.31-3.28,66.19.29,95.78,4.88,40.47,60.79,27.62,60.79-.06v-99.86Z"/>
    <path class="st0" d="M3169.92,3072.39c3.46,5.45,3.69,25.28-3.8,25.28h-51.87v35.39h46.81c6.21,0,3.25,18.92,1.27,22.75h-48.08v40.45h54.4c6.94,6.02,2.86,16.95,3.8,25.28h-84.76c-.84,0-3.84-3.35-6.33-2.53v-142.83l3.8-3.79h84.76Z"/>
    <path class="st0" d="M3656.48,3213.25c-4.18-5.13-5.6-25.91.59-27.1,14.8,7.03,44.77,20.9,58.68,6.89,22.18-22.34-31.1-36.89-43.14-45.23-31.35-21.7-18.6-72.34,20.04-77.72,24.5-3.41,66.54,1.47,47.87,35.11-11.23-10.96-51.79-20.1-52.08,3.78-.25,20.09,45.54,25.87,58.03,43.41,20.44,28.71-.55,66.91-34.02,71.47-13.95,1.9-46.37,1.17-55.97-10.61Z"/>
    <path class="st0" d="M2073.65,3080.61c4.4,4.56,5.28,28.56-.68,29.72-43.75-33.04-78.44-7.67-74.66,44.33,2.26,31.14,19.64,46.89,51.37,41.02,11.02-2.04,16.21-11.73,27.13-12.06,2.27,17.64,4.03,27.65-13.84,35.45-32.95,14.38-77.84,2.61-92.07-31.99-23.75-57.73,8.97-128.56,78.76-116.61,3.79.65,21.96,8.03,23.99,10.14Z"/>
    <path class="st0" d="M2694.22,3072.39c3.22,9.01,3.23,16.25,0,25.28h-40.48v120.08c-8.5,8.97-24.39,8.97-32.89,0v-120.08h-40.48c-3.23-9.03-3.22-16.27,0-25.28h113.86Z"/>
    <path class="st0" d="M3314.14,3097.67v120.08c-8.5,8.97-24.39,8.97-32.89,0v-120.08h-40.48c-1.81-8.13-6.19-18.73,1.27-25.28h108.8c5.97,5.43,5.97,19.84,0,25.28h-36.69Z"/>
    <path class="st0" d="M3832.86,3097.67v123.87c-11.04,3.37-19.34,1.61-30.36,0v-123.87h-39.22c-5.97-5.43-5.97-19.84,0-25.28h108.8c5.97,5.44,5.97,19.85,0,25.28h-39.22Z"/>
    <path class="st0" d="M3010.51,3196.27h49.34c6.94,6.02,2.86,16.95,3.8,25.28h-83.5l-2.11-144.94c3.3-9.82,26.26-7.95,32.48-.42v120.08Z"/>
    <path class="st0" d="M2529.75,3072.39c10.83-1.73,29.5-7.61,32.28,6.81-2.6,41.86,5.56,92.87.76,133.64-1.79,15.23-24.23,14.26-33.04,4.91v-145.36Z"/>
  </g>
</svg>