<svg width="18" height="18" viewBox="0 0 18 18" fill="none" xmlns="http://www.w3.org/2000/svg">
<path d="M6.78756 2.06471L7.43657 3.22764C8.02227 4.27712 7.78715 5.65386 6.86468 6.57634C6.86468 6.57634 5.74575 7.69528 7.77448 9.72402C9.80319 11.7527 10.9222 10.6338 10.9222 10.6338C11.8446 9.71135 13.2214 9.47623 14.2709 10.0619L15.4338 10.7109C17.0185 11.5954 17.2057 13.8178 15.8127 15.2107C14.9757 16.0477 13.9504 16.699 12.8169 16.742C10.9087 16.8143 7.66825 16.3314 4.41767 13.0808C1.1671 9.83026 0.684184 6.58976 0.756521 4.68162C0.799491 3.54814 1.45077 2.52277 2.28778 1.68577C3.68072 0.292817 5.90314 0.479972 6.78756 2.06471Z" stroke="#1C274C" stroke-width="1.5" stroke-linecap="round"/>
</svg>
