<svg width="95" height="95" viewBox="0 0 95 95" fill="none" xmlns="http://www.w3.org/2000/svg">
<path d="M47.5 95C73.7335 95 95 73.7335 95 47.5C95 21.2665 73.7335 0 47.5 0C21.2665 0 0 21.2665 0 47.5C0 73.7335 21.2665 95 47.5 95Z" fill="#EE3624"/>
<path d="M69.99 57.82L59.67 47.5L69.99 37.18C70.7257 36.4441 71.1391 35.4461 71.1391 34.4055C71.1391 33.3649 70.7257 32.3669 69.99 31.631L63.369 25.011C63.0046 24.6465 62.572 24.3574 62.0958 24.1602C61.6197 23.9629 61.1093 23.8614 60.594 23.8614C60.0786 23.8614 59.5682 23.9629 59.0921 24.1602C58.616 24.3574 58.1834 24.6465 57.819 25.011L47.5 35.33L37.18 25.01C36.4441 24.2742 35.4461 23.8609 34.4055 23.8609C33.3648 23.8609 32.3668 24.2742 31.631 25.01L25.011 31.63C24.6465 31.9944 24.3574 32.427 24.1601 32.9031C23.9629 33.3793 23.8613 33.8896 23.8613 34.405C23.8613 34.9204 23.9629 35.4307 24.1601 35.9068C24.3574 36.383 24.6465 36.8156 25.011 37.18L35.33 47.5L25.01 57.82C24.2742 58.5559 23.8608 59.5539 23.8608 60.5945C23.8608 61.6351 24.2742 62.6331 25.01 63.369L31.63 69.989C31.9944 70.3535 32.427 70.6426 32.9031 70.8398C33.3792 71.0371 33.8896 71.1386 34.405 71.1386C34.9203 71.1386 35.4307 71.0371 35.9068 70.8398C36.383 70.6426 36.8156 70.3535 37.18 69.989L47.5 59.67L57.82 69.99C58.5558 70.7258 59.5538 71.1391 60.5945 71.1391C61.6351 71.1391 62.6331 70.7258 63.369 69.99L69.989 63.37C70.3534 63.0056 70.6426 62.573 70.8398 62.0969C71.0371 61.6207 71.1386 61.1104 71.1386 60.595C71.1386 60.0796 71.0371 59.5693 70.8398 59.0931C70.6426 58.617 70.3544 58.1844 69.99 57.82Z" fill="white"/>
<path d="M95 47.5C95 73.73 73.73 95 47.5 95V0C73.73 0 95 21.27 95 47.5Z" fill="black" fill-opacity="0.0627451"/>
</svg>
