<svg width="107" height="100" viewBox="0 0 107 100" fill="none" xmlns="http://www.w3.org/2000/svg">
<path d="M17.5751 29.9933C17.5414 30.2715 17.5873 30.5536 17.7075 30.8068C17.8277 31.06 18.0172 31.274 18.2541 31.4238L42.6968 46.8625V74.5561C42.6968 74.606 42.7143 74.6511 42.7187 74.7C42.7379 74.897 42.7971 75.088 42.8926 75.2613C42.9079 75.2886 42.9084 75.3203 42.9254 75.3474C42.9324 75.3585 42.9428 75.3662 42.9499 75.3771C42.9767 75.417 43.0105 75.4495 43.0411 75.4866C43.1012 75.5592 43.1626 75.6283 43.2328 75.6867C43.2713 75.719 43.3131 75.7457 43.3551 75.7738C43.4327 75.826 43.5121 75.8705 43.5965 75.9068C43.6241 75.9186 43.6448 75.9388 43.6732 75.9489C43.6921 75.9557 43.7123 75.9532 43.7311 75.959C43.8742 76.0046 44.0216 76.0357 44.1729 76.0365L44.1773 76.0371H44.1794C44.3646 76.0371 44.5483 75.9882 44.7269 75.9164C44.7711 75.8986 44.8115 75.8814 44.8536 75.8593C44.8913 75.8396 44.9325 75.8306 44.9694 75.8072L66.7329 62.0465L88.5123 75.8085C88.7137 75.9357 88.9429 76.0124 89.1803 76.0321C89.4177 76.0517 89.6563 76.0137 89.8759 75.9213C90.0956 75.8294 90.2899 75.6858 90.4423 75.5027C90.5946 75.3197 90.7005 75.1025 90.751 74.8698L106.598 1.78395C106.619 1.6862 106.619 1.58845 106.621 1.4907C106.621 1.46421 106.628 1.43909 106.627 1.41261C106.62 1.25734 106.588 1.10423 106.533 0.958808C106.517 0.917852 106.495 0.880718 106.476 0.840853C106.424 0.730353 106.358 0.626876 106.28 0.53286C106.26 0.509378 106.252 0.479889 106.232 0.457772C106.219 0.443847 106.202 0.438933 106.189 0.425827C106.17 0.407533 106.158 0.385414 106.14 0.36794C106.039 0.278072 105.927 0.202375 105.806 0.142952C105.785 0.133122 105.764 0.130118 105.745 0.121653C105.619 0.0666711 105.486 0.0295422 105.35 0.0113434C105.304 0.00479037 105.259 0.00315349 105.213 0.00124218C105.095 -0.00369902 104.976 0.00611383 104.861 0.0304565C104.816 0.039467 104.774 0.043017 104.73 0.0561232C104.715 0.0607649 104.698 0.06022 104.682 0.0654078L18.5771 28.767C18.3111 28.8555 18.0756 29.0177 17.8982 29.2348C17.7208 29.4519 17.6087 29.7149 17.5751 29.9933ZM45.6588 46.5633L96.3621 9.69214L45.6588 70.4689V46.5633Z" fill="url(#paint0_linear_11_108)"/>
<path d="M18.7404 60.083L31.0621 50.7373C31.375 50.4998 31.5809 50.1478 31.6343 49.7586C31.6878 49.3694 31.5845 48.9749 31.3471 48.6618C31.1095 48.3493 30.7575 48.1438 30.3686 48.0904C29.9796 48.037 29.5853 48.1401 29.2723 48.3771L16.9506 57.7228C16.6452 57.9629 16.4464 58.3132 16.3969 58.6984C16.3473 59.0836 16.4511 59.4729 16.6858 59.7824C16.9204 60.0918 17.2673 60.2968 17.6516 60.353C18.0359 60.4092 18.4269 60.3123 18.7404 60.083Z" fill="url(#paint1_linear_11_108)"/>
<path d="M1.48209 56.5469C1.72209 56.5469 1.96592 56.489 2.19173 56.3647L24.2286 44.3101C24.3993 44.2169 24.5498 44.0911 24.6718 43.9396C24.7937 43.7882 24.8846 43.6142 24.9392 43.4276C24.9938 43.241 25.011 43.0455 24.99 42.8523C24.9689 42.659 24.91 42.4718 24.8165 42.3013C24.7234 42.1305 24.5975 41.9797 24.4461 41.8577C24.2946 41.7356 24.1205 41.6446 23.9338 41.5899C23.7472 41.5352 23.5515 41.5179 23.3581 41.539C23.1647 41.56 22.9774 41.619 22.8069 41.7126L0.769986 53.7673C0.599363 53.8605 0.448792 53.9864 0.326884 54.1379C0.204976 54.2893 0.114123 54.4633 0.0595232 54.6499C0.00492336 54.8365 -0.0123531 55.0321 0.00868353 55.2253C0.0297201 55.4186 0.0886562 55.6059 0.182121 55.7763C0.309405 56.0099 0.497361 56.2047 0.726159 56.3403C0.954957 56.476 1.21612 56.5473 1.48209 56.5469Z" fill="url(#paint2_linear_11_108)"/>
<path d="M68.1987 71.7371L56.3363 83.0513C56.1918 83.1846 56.0754 83.3452 55.9937 83.524C55.912 83.7027 55.8667 83.8959 55.8604 84.0923C55.8541 84.2888 55.887 84.4845 55.9571 84.6681C56.0272 84.8517 56.1332 85.0195 56.2688 85.1617C56.4044 85.3039 56.567 85.4177 56.747 85.4965C56.927 85.5753 57.121 85.6174 57.3175 85.6205C57.514 85.6236 57.7091 85.5875 57.8915 85.5144C58.0739 85.4413 58.24 85.3326 58.38 85.1947L70.2424 73.8805C70.3868 73.7473 70.5033 73.5866 70.585 73.4078C70.6667 73.2291 70.712 73.0359 70.7183 72.8395C70.7246 72.6431 70.6917 72.4473 70.6216 72.2638C70.5515 72.0802 70.4455 71.9124 70.3099 71.7701C70.1743 71.6279 70.0117 71.5141 69.8317 71.4353C69.6516 71.3566 69.4577 71.3144 69.2612 71.3113C69.0647 71.3083 68.8695 71.3443 68.6871 71.4174C68.5047 71.4905 68.3387 71.5992 68.1987 71.7371Z" fill="url(#paint3_linear_11_108)"/>
<path d="M60.3817 99.6718C60.6448 99.8845 60.973 100 61.3114 100C61.5326 100 61.751 99.9511 61.9506 99.8557C62.1501 99.7604 62.3256 99.6213 62.4642 99.4489L78.9329 79.055C79.1796 78.7494 79.2948 78.3583 79.2533 77.9678C79.2119 77.5773 79.0171 77.2192 78.7117 76.9722C78.0753 76.4602 77.1425 76.5572 76.6292 77.195L60.1605 97.589C59.9139 97.8946 59.7986 98.2856 59.8401 98.6761C59.8815 99.0667 60.0763 99.4248 60.3817 99.6718Z" fill="url(#paint4_linear_11_108)"/>
<defs>
<linearGradient id="paint0_linear_11_108" x1="-4.34686" y1="99.1803" x2="100.502" y2="15.301" gradientUnits="userSpaceOnUse">
<stop stop-color="#010088"/>
<stop offset="1" stop-color="#A9A8FF"/>
</linearGradient>
<linearGradient id="paint1_linear_11_108" x1="-28.7254" y1="89.5079" x2="63.5015" y2="1.28128" gradientUnits="userSpaceOnUse">
<stop stop-color="#010088"/>
<stop offset="1" stop-color="#F4F4FF"/>
</linearGradient>
<linearGradient id="paint2_linear_11_108" x1="-73.8825" y1="92.1453" x2="35.4952" y2="-48.1319" gradientUnits="userSpaceOnUse">
<stop stop-color="#010088"/>
<stop offset="1" stop-color="#F4F4FF"/>
</linearGradient>
<linearGradient id="paint3_linear_11_108" x1="11.9433" y1="119.543" x2="116.792" y2="35.6636" gradientUnits="userSpaceOnUse">
<stop stop-color="#010088"/>
<stop offset="1" stop-color="#F4F4FF"/>
</linearGradient>
<linearGradient id="paint4_linear_11_108" x1="2.40777" y1="155.367" x2="161.785" y2="53.2232" gradientUnits="userSpaceOnUse">
<stop stop-color="#010088"/>
<stop offset="1" stop-color="#F4F4FF"/>
</linearGradient>
</defs>
</svg>
