<svg width="18" height="18" viewBox="0 0 18 18" fill="none" xmlns="http://www.w3.org/2000/svg">
<path fill-rule="evenodd" clip-rule="evenodd" d="M7.95521 0.622584C7.95815 0.969355 7.67942 1.25285 7.33265 1.25579C5.90136 1.26793 4.84651 1.31447 4.02933 1.47454C3.22968 1.63117 2.70403 1.88818 2.29829 2.29392C1.82121 2.771 1.54745 3.41647 1.40351 4.48705C1.25715 5.57571 1.25581 7.00623 1.25581 8.99782C1.25581 10.9894 1.25715 12.4199 1.40351 13.5086C1.54745 14.5792 1.82121 15.2246 2.29829 15.7017C2.77537 16.1788 3.42083 16.4526 4.49142 16.5965C5.58007 16.7429 7.0106 16.7442 9.00218 16.7442C10.9938 16.7442 12.4243 16.7429 13.5129 16.5965C14.5835 16.4526 15.229 16.1788 15.7061 15.7017C16.1118 15.296 16.3688 14.7703 16.5255 13.9707C16.6855 13.1535 16.7321 12.0986 16.7442 10.6673C16.7471 10.3206 17.0306 10.0418 17.3774 10.0448C17.7242 10.0477 18.0029 10.3312 18 10.678C17.9879 12.1049 17.943 13.2671 17.7579 14.2121C17.5693 15.1746 17.2274 15.9564 16.5941 16.5897C15.8448 17.339 14.8901 17.6784 13.6803 17.8411C12.4983 18 10.9833 18 9.05022 18H8.95415C7.02103 18 5.5061 18 4.32409 17.8411C3.11424 17.6784 2.1596 17.339 1.41029 16.5897C0.660992 15.8404 0.321557 14.8858 0.158898 13.6759C-1.91372e-05 12.4939 -1.06017e-05 10.979 1.77081e-07 9.04586V8.94978C-1.06017e-05 7.01666 -1.91372e-05 5.50173 0.158898 4.31972C0.321557 3.10988 0.660992 2.15523 1.41029 1.40593C2.04365 0.772573 2.8254 0.430684 3.78793 0.242144C4.73293 0.0570381 5.89505 0.0121212 7.322 2.30465e-05C7.66878 -0.002917 7.95227 0.275813 7.95521 0.622584ZM12.742 0.18391C12.9873 -0.0613027 13.3848 -0.0613027 13.63 0.18391L17.8161 4.36996C18.0613 4.61517 18.0613 5.01274 17.8161 5.25795L13.63 9.444C13.3848 9.68921 12.9873 9.68921 12.742 9.444C12.4968 9.19878 12.4968 8.80122 12.742 8.556L15.8562 5.44186H10.6744C9.37551 5.44186 8.60885 6.07563 8.34032 6.34548L8.17942 6.50716L8.0199 6.66589C7.75006 6.93443 7.11628 7.7011 7.11628 9V11.5116C7.11628 11.8584 6.83516 12.1395 6.48837 12.1395C6.14159 12.1395 5.86047 11.8584 5.86047 11.5116V9C5.86047 7.25544 6.7203 6.1875 7.13407 5.77575C7.13407 5.77575 7.13407 5.77575 7.13407 5.77575L7.29358 5.61701L7.45016 5.45965C7.86191 5.04589 8.92985 4.18605 10.6744 4.18605H15.8562L12.742 1.0719C12.4968 0.826692 12.4968 0.429123 12.742 0.18391Z" fill="white"/>
</svg>
